<svg width="558" height="404" viewBox="0 0 558 404" fill="none" xmlns="http://www.w3.org/2000/svg">
<path d="M201.078 246.649C199.947 246.55 198.815 246.462 197.684 246.396C184.756 245.617 171.794 247.187 158.844 247.395C148.804 247.56 138.71 246.912 128.736 248.131C116.565 249.613 102.253 254.235 97.4527 266.673C96.541 269.044 96.0247 271.613 94.6956 273.776C91.0489 279.693 82.9425 280.55 76.0004 280.978C59.7328 281.988 42.5644 283.426 26.7471 287.565C15.653 290.474 7.3269 301.101 18.9482 309.949C23.9461 313.759 30.4927 314.725 36.7208 315.559C53.6695 317.854 70.6291 320.137 87.5778 322.432C100.748 324.21 98.9356 336.692 87.6437 340.601C77.4613 344.125 60.7213 351.842 74.4956 364.358C78.5268 368.013 83.986 369.616 89.3133 370.769C103.747 373.887 118.586 374.512 133.349 374.995C197.86 377.136 262.436 377.389 326.969 378.322C384.493 379.156 442.6 380.572 498.663 365.554C502.431 364.544 506.737 362.952 507.879 359.231C509.318 354.532 504.727 350.272 500.454 347.846C496.181 345.42 491.084 342.577 490.645 337.691C490.337 334.343 492.479 331.247 494.962 328.986C501.256 323.255 509.889 321.048 518.161 319.028C526.432 317.008 535.065 314.802 541.359 309.071C550.125 301.09 549.674 290.342 541.227 283.031C529.606 272.975 515.59 269.945 500.75 268.177C478.09 265.487 455.232 265.114 432.417 264.829C365.238 263.961 299.629 266.585 233.493 252.423C222.75 250.129 211.996 247.637 201.078 246.649Z" fill="#DCEFEB"/>
<path d="M162.578 131.608C168.389 116.052 166.73 93.6779 154.461 90.0222C148.2 88.1668 144.224 91.8775 139.511 89.7038C135.788 87.9912 127.253 72.5777 116.928 63.6304C104.867 53.1681 87.4461 47.701 80.9983 52.3667C67.3559 62.2362 91.9386 84.039 95.0252 101.835C95.2888 103.361 95.179 107.785 95.3438 113.011C96.1126 112.956 96.8925 112.956 97.6944 113.033C104.109 113.549 108.997 117.676 108.635 122.254C108.294 126.569 103.395 129.742 97.4967 129.676C102.429 146.67 110.941 168.857 116.005 180.604C122.431 195.523 137.831 221.476 157.086 216.261C171.322 212.397 177.122 179.561 176.375 163.039C175.628 146.505 158.822 141.675 162.567 131.619L162.578 131.608Z" fill="#00504A"/>
<path d="M145.135 212.551C145.135 212.551 145.256 209.839 145.355 205.064C145.454 200.299 145.542 193.482 145.377 185.314C145.311 181.23 145.146 176.806 144.894 172.129C144.641 167.452 144.235 162.534 143.642 157.473C143.477 156.211 143.312 154.948 143.147 153.664C142.917 152.39 142.73 151.084 142.433 149.821C141.917 147.274 141.192 144.705 140.445 142.136C138.907 137.01 137.007 131.905 134.865 126.899C130.57 116.897 125.254 107.324 119.344 98.9919C117.829 96.9499 116.324 94.9299 114.819 92.9758C113.336 90.9997 111.919 89.0566 110.557 87.1463C107.822 83.3369 105.274 79.7031 102.824 76.4316C100.375 73.16 98.013 70.2398 95.8052 67.7478C93.5863 65.2667 91.5433 63.2137 89.7968 61.589C88.0393 59.9752 86.6223 58.7456 85.6118 57.9552C84.6122 57.1537 84.085 56.7256 84.085 56.7256C84.085 56.7256 84.6232 57.1537 85.6227 57.9442C86.6333 58.7236 88.0722 59.9422 89.8407 61.545C91.5982 63.1589 93.6742 65.1898 95.915 67.6599C98.1448 70.13 100.539 73.0283 103.011 76.2888C105.493 79.5384 108.086 83.1503 110.843 86.9378C112.227 88.837 113.655 90.7692 115.148 92.7233C116.664 94.6555 118.18 96.6645 119.729 98.7174C125.737 107.028 131.152 116.59 135.557 126.602C137.754 131.608 139.709 136.724 141.302 141.884C142.082 144.464 142.829 147.033 143.378 149.635C143.696 150.93 143.894 152.215 144.136 153.499C144.323 154.794 144.498 156.079 144.674 157.352C145.311 162.446 145.762 167.375 146.058 172.074C146.355 176.762 146.552 181.197 146.662 185.292C146.893 193.482 146.871 200.321 146.816 205.097C146.75 209.872 146.651 212.617 146.651 212.617C146.64 213.045 146.278 213.374 145.849 213.363C145.421 213.352 145.092 212.99 145.102 212.562L145.135 212.551Z" fill="#DEF0FA"/>
<path d="M91.7184 148.492C91.7184 148.492 91.7293 148.492 91.7403 148.514C108.59 158.911 110.853 177.332 110.853 177.332C110.853 177.332 113.533 161.809 120.651 163.148C243.367 232.772 206.965 320.95 206.965 320.95C206.965 320.95 92.7619 305.404 49.9892 204.876C49.9453 198.816 62.9286 196.017 62.9286 196.017C62.9286 196.017 45.266 185.807 41.1908 179.056C37.0717 163.39 34.5563 146.055 34.1279 126.832C55.7889 133.595 74.8905 140.873 91.7074 148.492H91.7184Z" fill="#CBDC00"/>
<path d="M206.273 321.455C206.273 321.455 203.922 318.15 199.672 312.442C197.563 309.576 194.959 306.129 191.983 302.166C188.962 298.236 185.612 293.768 181.844 288.959C179.977 286.555 178.022 284.041 176.001 281.45C173.957 278.87 171.848 276.213 169.674 273.48C165.357 267.98 160.667 262.304 155.866 256.365C151.022 250.48 145.981 244.42 140.829 238.295C138.226 235.254 135.611 232.18 132.975 229.106C131.657 227.569 130.339 226.021 129.021 224.473L125.001 219.895C119.618 213.791 114.291 207.654 108.865 201.77C106.174 198.806 103.493 195.875 100.857 192.965C98.221 190.067 95.5189 187.279 92.9156 184.49C90.3014 181.713 87.7201 178.99 85.2047 176.322C82.6893 173.655 80.13 171.13 77.6915 168.627C72.7705 163.664 68.2121 158.867 63.7854 154.673C59.4027 150.425 55.3825 146.538 51.8236 143.08C48.2097 139.688 44.9914 136.801 42.3771 134.385C37.1266 129.577 34.1279 126.821 34.1279 126.821C34.1279 126.821 37.1486 129.555 42.421 134.33C45.0573 136.724 48.2866 139.6 51.9224 142.97C55.5033 146.396 59.5455 150.26 63.9612 154.487C68.4208 158.658 73.0122 163.423 77.9661 168.352C80.4266 170.844 82.9969 173.347 85.5342 176.004C88.0716 178.661 90.6639 181.372 93.3001 184.128C95.9253 186.894 98.6384 189.661 101.308 192.548C103.966 195.435 106.657 198.356 109.381 201.298C114.851 207.149 120.222 213.264 125.649 219.335L129.702 223.891C131.031 225.428 132.36 226.965 133.689 228.491C136.347 231.554 138.984 234.606 141.609 237.636C146.804 243.74 151.89 249.767 156.767 255.618C161.6 261.525 166.334 267.178 170.695 272.646C172.892 275.368 175.023 278.025 177.088 280.583C179.131 283.163 181.097 285.666 182.986 288.059C186.787 292.835 190.17 297.292 193.224 301.211C196.223 305.163 198.859 308.588 200.99 311.443C203.121 314.297 204.79 316.548 205.933 318.074C207.064 319.611 207.668 320.434 207.668 320.434C207.954 320.818 207.866 321.356 207.481 321.642C207.097 321.927 206.559 321.839 206.273 321.455Z" fill="#E4F3EA"/>
<path d="M66.3333 157L36.8955 158.406L66.3223 156.803C66.3223 156.803 66.4212 156.836 66.4212 156.891C66.4212 156.945 66.3882 156.989 66.3333 156.989V157Z" fill="#E4F3EA"/>
<path d="M78.9983 169.691L81.7773 144.134L79.2509 169.713C79.2509 169.779 79.185 169.834 79.1081 169.834C79.0422 169.834 78.9873 169.768 78.9873 169.691H78.9983Z" fill="#E4F3EA"/>
<path d="M118.015 211.64L57.8213 220.949L117.883 210.794C118.114 210.75 118.345 210.915 118.377 211.146C118.421 211.376 118.257 211.607 118.026 211.64H118.015Z" fill="#E4F3EA"/>
<path d="M124.957 219.478L62.3359 228.689L124.825 218.622C125.056 218.589 125.287 218.742 125.32 218.984C125.353 219.214 125.199 219.445 124.957 219.478Z" fill="#E4F3EA"/>
<path d="M147.804 246.112L170.223 199.553L148.902 246.628C148.76 246.935 148.408 247.067 148.101 246.935C147.793 246.803 147.661 246.441 147.793 246.133C147.793 246.133 147.793 246.133 147.793 246.123L147.804 246.112Z" fill="#94D4B1"/>
<path d="M164.566 266.322L104.79 275.884L164.446 265.619C164.643 265.586 164.819 265.718 164.852 265.905C164.885 266.102 164.753 266.278 164.566 266.311V266.322Z" fill="#94D4B1"/>
<path d="M182.151 288.641L203.219 246.715L183.415 289.256C183.25 289.607 182.832 289.761 182.481 289.596C182.129 289.431 181.976 289.014 182.14 288.663C182.14 288.663 182.14 288.652 182.14 288.641H182.151Z" fill="#94D4B1"/>
<path d="M429.616 234.748C429.616 234.748 429.561 234.726 429.539 234.715C429.33 234.605 429.254 234.342 429.363 234.133C458.186 179.407 482.11 141.466 496.708 127.293C497.037 126.975 497.268 126.755 497.367 126.634C497.521 126.448 497.784 126.426 497.971 126.568C498.158 126.711 498.191 126.986 498.037 127.172C497.905 127.337 497.685 127.556 497.312 127.908C482.78 142.015 458.911 179.879 430.132 234.529C430.033 234.715 429.825 234.792 429.638 234.737L429.616 234.748Z" fill="#CBDC00"/>
<path d="M505.242 125.854C503.529 127.435 496.07 129.488 495.62 128.994C495.17 128.511 497.817 121.244 499.531 119.663C501.244 118.082 503.902 118.192 505.484 119.904C507.066 121.617 506.956 124.274 505.242 125.854Z" fill="#CBDC00"/>
<path d="M491.018 128.896C491.249 131.267 488.338 138.612 487.668 138.677C486.987 138.743 482.681 132.112 482.45 129.741C482.22 127.37 483.944 125.262 486.306 125.031C488.678 124.801 490.787 126.524 491.018 128.885V128.896Z" fill="#CBDC00"/>
<path d="M496.521 143.815C494.159 143.507 487.645 139.017 487.733 138.348C487.821 137.678 495.258 134.977 497.619 135.274C499.981 135.581 501.65 137.733 501.343 140.093C501.035 142.453 498.882 144.122 496.521 143.815Z" fill="#CBDC00"/>
<path d="M463.535 163.532C464.359 167.44 460.822 180.23 459.712 180.471C458.592 180.702 450.211 170.415 449.387 166.507C448.563 162.599 451.068 158.767 454.978 157.944C458.889 157.12 462.722 159.624 463.546 163.532H463.535Z" fill="#CBDC00"/>
<path d="M475.42 187.443C471.422 187.366 459.746 181.042 459.768 179.9C459.79 178.759 471.707 172.907 475.706 172.984C479.704 173.061 482.867 176.365 482.791 180.351C482.714 184.347 479.407 187.508 475.42 187.432V187.443Z" fill="#CBDC00"/>
<path d="M450.508 176.091C452.54 180.537 451.771 196.763 450.508 197.345C449.245 197.927 436.448 187.904 434.416 183.458C432.384 179.011 434.339 173.764 438.777 171.733C443.225 169.702 448.476 171.656 450.508 176.091Z" fill="#CBDC00"/>
<path d="M467.995 207.752C463.14 207.148 449.728 197.992 449.893 196.609C450.069 195.226 465.315 189.605 470.159 190.198C475.014 190.802 478.452 195.215 477.859 200.056C477.255 204.909 472.839 208.345 467.995 207.752Z" fill="#CBDC00"/>
<path d="M440.501 193.81C442.533 198.256 441.764 214.482 440.501 215.064C439.238 215.646 426.441 205.623 424.409 201.176C422.377 196.73 424.332 191.483 428.77 189.452C433.218 187.421 438.469 189.375 440.501 193.81Z" fill="#CBDC00"/>
<path d="M457.988 225.483C453.133 224.879 439.722 215.723 439.886 214.34C440.062 212.956 455.308 207.336 460.152 207.928C465.007 208.532 468.445 212.945 467.852 217.787C467.248 222.639 462.832 226.075 457.988 225.483Z" fill="#CBDC00"/>
<path d="M422.026 214.943C425.596 218.281 431.077 233.573 430.121 234.594C429.165 235.615 413.524 231.213 409.954 227.876C406.384 224.538 406.186 218.95 409.526 215.371C412.865 211.803 418.456 211.606 422.037 214.943H422.026Z" fill="#CBDC00"/>
<path d="M448.718 244.365C443.83 244.376 429.396 235.736 429.396 234.342C429.396 232.947 443.819 225.46 448.707 225.449C453.595 225.438 457.571 229.39 457.582 234.276C457.593 239.161 453.606 244.354 448.718 244.365Z" fill="#CBDC00"/>
<path d="M482.527 139.688C482.768 142.092 479.803 149.557 479.122 149.634C478.43 149.7 474.058 142.959 473.816 140.555C473.575 138.151 475.332 136.01 477.738 135.768C480.143 135.527 482.285 137.283 482.527 139.688Z" fill="#CBDC00"/>
<path d="M487.778 154.936C485.383 154.629 478.76 150.062 478.848 149.381C478.935 148.7 486.493 145.956 488.887 146.263C491.282 146.571 492.984 148.766 492.666 151.159C492.358 153.553 490.161 155.254 487.767 154.936H487.778Z" fill="#CBDC00"/>
<path d="M473.322 149.458C473.937 152.839 470.62 163.752 469.653 163.938C468.687 164.114 461.701 155.079 461.085 151.709C460.47 148.327 462.7 145.089 466.083 144.474C469.466 143.859 472.707 146.088 473.322 149.469V149.458Z" fill="#CBDC00"/>
<path d="M482.307 171.436C478.902 170.997 469.499 164.509 469.631 163.543C469.752 162.566 480.495 158.668 483.9 159.108C487.305 159.547 489.71 162.665 489.271 166.068C488.832 169.471 485.712 171.875 482.307 171.436Z" fill="#CBDC00"/>
<path d="M417.863 90.1642V295.513C417.863 300.2 414.964 304.01 411.394 304.01H154.9C151.331 304.01 148.431 300.2 148.431 295.513V90.1642C148.431 85.4764 151.32 81.667 154.9 81.667H411.394C414.964 81.667 417.863 85.4764 417.863 90.1642Z" fill="#9ACCC6"/>
<path d="M417.721 88.057V102.307H148.299V88.057C148.299 84.4891 151.188 81.5908 154.769 81.5908H411.262C414.832 81.5908 417.732 84.4891 417.732 88.057H417.721Z" fill="#128489"/>
<path d="M159.579 91.9539C159.579 90.3511 160.875 89.0557 162.479 89.0557C164.083 89.0557 165.379 90.3511 165.379 91.9539C165.379 93.5567 164.083 94.8522 162.479 94.8522C160.875 94.8522 159.579 93.5567 159.579 91.9539Z" fill="white"/>
<path d="M170.685 91.9539C170.685 90.3511 171.981 89.0557 173.584 89.0557C175.188 89.0557 176.484 90.3511 176.484 91.9539C176.484 93.5567 175.188 94.8522 173.584 94.8522C171.981 94.8522 170.685 93.5567 170.685 91.9539Z" fill="white"/>
<path d="M181.8 91.9539C181.8 90.3511 183.096 89.0557 184.7 89.0557C186.303 89.0557 187.599 90.3511 187.599 91.9539C187.599 93.5567 186.303 94.8522 184.7 94.8522C183.096 94.8522 181.8 93.5567 181.8 91.9539Z" fill="white"/>
<path d="M432.307 102.01V307.358C432.307 312.046 429.407 315.855 425.837 315.855H169.344C165.774 315.855 162.874 312.046 162.874 307.358V102.01C162.874 97.3221 165.763 93.5127 169.344 93.5127H425.837C429.407 93.5127 432.307 97.3221 432.307 102.01Z" fill="#D1E5E3"/>
<path d="M432.164 99.9017V114.152H162.742V99.9017C162.742 96.3338 165.631 93.4355 169.212 93.4355H425.705C429.275 93.4355 432.175 96.3338 432.175 99.9017H432.164Z" fill="#14B3A7"/>
<path d="M174.013 103.8C174.013 102.197 175.309 100.901 176.913 100.901C178.516 100.901 179.812 102.197 179.812 103.8C179.812 105.402 178.516 106.698 176.913 106.698C175.309 106.698 174.013 105.402 174.013 103.8Z" fill="white"/>
<path d="M185.129 103.8C185.129 102.197 186.425 100.901 188.029 100.901C189.632 100.901 190.929 102.197 190.929 103.8C190.929 105.402 189.632 106.698 188.029 106.698C186.425 106.698 185.129 105.402 185.129 103.8Z" fill="white"/>
<path d="M196.245 103.8C196.245 102.197 197.541 100.901 199.145 100.901C200.749 100.901 202.045 102.197 202.045 103.8C202.045 105.402 200.749 106.698 199.145 106.698C197.541 106.698 196.245 105.402 196.245 103.8Z" fill="white"/>
<path d="M403.375 123.703H251.77C247.129 123.703 243.367 127.463 243.367 132.101V292.56C243.367 297.198 247.129 300.958 251.77 300.958H403.375C408.016 300.958 411.778 297.198 411.778 292.56V132.101C411.778 127.463 408.016 123.703 403.375 123.703Z" fill="white"/>
<path d="M229.318 138.161H180.998C178.663 138.161 176.77 140.053 176.77 142.388V266.98C176.77 269.314 178.663 271.207 180.998 271.207H229.318C231.654 271.207 233.547 269.314 233.547 266.98V142.388C233.547 140.053 231.654 138.161 229.318 138.161Z" fill="white"/>
<path d="M382.197 224.538H256.328V229.665H382.197V224.538Z" fill="#14B3A7"/>
<path d="M346.849 234.178H256.328V236.736H346.849V234.178Z" fill="#BEE8E1"/>
<path d="M399.892 234.178H356.395V236.736H399.892V234.178Z" fill="#BEE8E1"/>
<path d="M318.191 241.412H256.328V243.97H318.191V241.412Z" fill="#BEE8E1"/>
<path d="M371.684 241.412H324.716V243.97H371.684V241.412Z" fill="#BEE8E1"/>
<path d="M325.606 179.506H256.328V184.874H325.606V179.506Z" fill="#14B3A7"/>
<path d="M309.832 189.771H256.328V192.46H309.832V189.771Z" fill="#BEE8E1"/>
<path d="M327.572 189.771H314.402V192.46H327.572V189.771Z" fill="#BEE8E1"/>
<path d="M275.287 197.346H256.328V200.035H275.287V197.346Z" fill="#BEE8E1"/>
<path d="M302.594 197.346H279.329V200.035H302.594V197.346Z" fill="#BEE8E1"/>
<path d="M336.217 266.838H256.328V271.965H336.217V266.838Z" fill="#14B3A7"/>
<path d="M313.721 276.642H256.273V279.2H313.721V276.642Z" fill="#BEE8E1"/>
<path d="M363.403 276.642H319.784V279.2H363.403V276.642Z" fill="#BEE8E1"/>
<path d="M302.023 283.865H256.273V286.423H302.023V283.865Z" fill="#BEE8E1"/>
<path d="M341.588 283.865H306.855V286.423H341.588V283.865Z" fill="#BEE8E1"/>
<path d="M399.892 139.61H256.328V170.525H399.892V139.61Z" fill="#B8D0FC"/>
<path d="M314.413 165.662L323.552 149.194L330.274 158.361L333.625 154.694L340.731 165.662H314.413Z" fill="#6D76FF"/>
<path d="M332.615 147.218C332.824 145.931 331.95 144.718 330.662 144.51C329.375 144.301 328.162 145.174 327.953 146.461C327.744 147.748 328.618 148.96 329.905 149.169C331.193 149.378 332.406 148.504 332.615 147.218Z" fill="#6D76FF"/>
<path d="M399.892 178.067H333.833V216.338H399.892V178.067Z" fill="#FF8A88"/>
<path d="M361.58 187.398V207.006L376.486 197.202L361.58 187.398Z" fill="#100259"/>
<path d="M92.7401 209.267C83.5682 209.75 74.9566 216.82 70.2883 224.538C66.1143 231.432 64.7303 239.589 62.6323 247.373C57.4916 266.42 47.6278 284.392 46.2328 304.076C45.7934 310.333 46.2438 316.744 48.5285 322.585C53.1529 334.419 64.7742 342.401 77.0106 345.881C89.2361 349.35 102.187 348.999 114.895 348.603C127.242 348.23 139.577 347.846 151.923 347.473C159.656 347.242 167.477 346.99 174.935 344.937C182.394 342.884 189.577 338.811 193.85 332.367C198.112 325.944 199.09 317.733 197.793 310.136C196.497 302.539 193.092 295.458 189.171 288.816C181.35 275.576 171.267 263.676 159.524 253.729C153.856 248.921 147.793 244.409 141.356 240.676C134.766 236.856 127.78 233.672 121.629 229.138C119.926 227.886 118.289 226.525 116.763 225.054C113.358 221.75 110.557 217.863 107.042 214.68C103.032 211.057 98.1883 208.982 92.7401 209.267Z" fill="#128489"/>
<path d="M186.546 328.36C186.546 328.36 188.413 337.351 193.005 340.513C197.596 343.685 206.12 347.517 205.076 349.723C204.033 351.941 182.613 349.317 182.284 347.132C181.954 344.948 181.79 335.583 179.417 330.918L186.546 328.349V328.36Z" fill="#FFA089"/>
<path d="M181.888 342.609C182.074 344.673 182.162 346.364 182.283 347.143C182.613 349.328 204.032 351.952 205.075 349.734C205.844 348.088 201.363 345.563 197.123 343.07C195.838 344.717 192.015 347.352 181.888 342.62V342.609Z" fill="#080435"/>
<path d="M169.157 336.188C169.157 336.188 171.024 345.179 175.616 348.341C180.207 351.513 188.731 355.345 187.688 357.551C186.644 359.769 165.225 357.145 164.895 354.961C164.566 352.776 164.401 343.411 162.028 338.746L169.157 336.177V336.188Z" fill="#FFA089"/>
<path d="M112.929 188.233C118.201 190.078 122.265 194.996 123.089 200.518C123.759 205.019 122.496 209.959 124.693 213.944C125.517 215.437 126.769 216.645 127.78 218.017C129.526 220.378 130.57 223.243 130.745 226.163C130.866 228.172 130.548 230.302 129.361 231.938C128.548 233.058 127.395 233.859 126.231 234.616C123.726 236.252 121.079 237.745 118.179 238.459C115.279 239.172 112.061 239.019 109.491 237.482C107.766 236.45 106.217 234.792 104.207 234.77C103.515 234.77 102.845 234.957 102.186 235.143C99.6269 235.879 97.0236 236.636 94.7609 238.053C92.3443 239.557 90.3672 241.785 87.731 242.839C83.9634 244.354 79.2182 242.927 76.9225 239.568C74.6268 236.219 75.0002 231.29 77.7792 228.315C79.9761 225.966 83.535 224.615 84.4247 221.519C85.1716 218.929 83.6448 216.173 83.9634 213.494C84.5126 208.829 90.0047 206.567 92.3773 202.516C94.673 198.597 94.695 193.964 98.2539 190.703C101.967 187.289 108.326 186.631 112.918 188.244L112.929 188.233Z" fill="#004782"/>
<path d="M100.967 281.659C100.967 281.659 104.196 304.021 112.083 304.493C119.97 304.965 144.783 301.848 147.672 305.558C150.561 309.258 161.545 343.993 161.545 343.993L172.584 340.381C172.584 340.381 162.039 300.475 160.359 296.842C156.514 288.476 155.58 289.069 155.58 289.069C155.58 289.069 159.568 288.542 163.632 295.502C165.433 298.598 178.351 334.343 178.351 334.343L189.379 330.731C189.379 330.731 179.625 280.286 168.904 276.74C158.184 273.183 131.887 271.921 131.887 271.921L100.967 281.659Z" fill="#24198E"/>
<path d="M133.602 238.426L145.937 256.858L138.753 261.601C138.753 261.601 130.394 254.575 125.649 246.978C120.904 239.37 133.613 238.426 133.613 238.426H133.602Z" fill="#FFA089"/>
<path d="M108.942 223.441C108.942 223.441 118.432 222.321 124.133 226.01C129.834 229.699 136.249 239.81 136.249 239.81L128.856 245.463C128.856 245.463 130.658 251.71 127.374 254.74C127.374 254.74 128.384 265.18 133.766 272.437C133.766 272.437 115.412 285.951 100.583 284.403L89.5768 257.1L80.6685 256.639C80.6685 256.639 78.3509 237.471 86.9625 231.367C95.5742 225.274 103.022 223.507 108.953 223.441H108.942Z" fill="#FBBD6C"/>
<path d="M82.7879 256.749L94.9804 257.111C94.9804 257.111 95.5845 266.728 97.9901 270.856C101.835 277.432 114.148 281.044 118.827 279.013L120.134 283.316C120.134 283.316 95.8262 290.386 88.3679 278.014C80.9096 265.641 82.7879 256.76 82.7879 256.76V256.749Z" fill="#FFA089"/>
<path d="M118.806 206.71C118.806 206.71 119.783 205.282 120.519 205.886C122.419 207.401 120.311 209.355 119.025 209.762L118.806 206.721V206.71Z" fill="#FA5D63"/>
<path d="M106.975 189.101C101.099 189.397 96.2987 194.129 95.9033 200.002C95.7715 201.935 96.123 203.768 96.826 205.415C98.3857 209.521 99.6709 212.814 101.297 215.24C102.944 217.688 103.669 220.642 103.219 223.551L103.032 224.714C102.856 225.823 103.482 226.899 104.526 227.294C107.755 228.524 109.952 228.096 111.215 227.514C112.028 227.141 112.544 226.339 112.555 225.45L112.632 219.818C120.014 219.039 119.234 205.437 119.289 201.408H119.278C119.278 201.254 119.289 201.111 119.3 200.957C119.399 194.228 113.797 188.75 106.964 189.101H106.975Z" fill="#FFA089"/>
<path d="M105.965 201.001C104.515 202.439 103.241 204.053 101.967 205.655C100.627 207.357 99.2427 209.158 98.9132 211.298C97.0349 209.827 95.8486 207.653 94.849 205.491C94.3877 204.481 93.9483 203.449 93.8055 202.351C93.6078 200.792 94.0142 199.233 94.4097 197.718C94.9259 195.764 95.4861 193.722 96.8482 192.229C97.7489 191.241 98.9352 190.549 100.165 190.011C103.021 188.738 106.218 188.134 109.315 188.606C112.402 189.078 115.368 190.703 117.18 193.25C119.509 196.533 119.717 200.814 119.838 204.843C119.454 203.163 118.377 201.758 117.323 200.397C116.642 199.519 115.928 198.618 114.994 198.015C113.39 196.983 112.94 197.191 110.139 195.237C109.37 197.707 107.799 199.211 105.976 201.012L105.965 201.001Z" fill="#004782"/>
<path d="M100.362 208.741C100.176 208.357 99.8572 208.06 99.4618 207.907C98.6599 207.566 97.232 207.193 96.2434 208.159C94.7825 209.575 97.6274 213.429 100.516 211.573C100.516 211.573 101.34 210.772 100.362 208.741Z" fill="#FFA089"/>
<path d="M120.135 283.305C120.135 283.305 121.398 283.59 122.716 283.184C124.045 282.767 127.769 281.032 128.428 280.89C129.087 280.758 132.613 280.835 133.162 280.472C133.711 280.11 129.373 279.254 129.373 279.254C129.373 279.254 133.173 279.473 133.415 278.804C133.656 278.145 129.592 277.552 129.592 277.552C129.592 277.552 133.305 277.366 133.327 276.718C133.349 276.07 129.746 276.213 129.746 276.213C129.746 276.213 132.975 275.565 132.975 275.049C132.975 274.533 127.967 274.489 126.132 275.269C124.298 276.059 118.806 279.001 118.806 279.001L120.113 283.305H120.135Z" fill="#FFA089"/>
<path d="M164.5 350.448C164.687 352.512 164.775 354.203 164.895 354.982C165.225 357.167 186.644 359.791 187.688 357.573C188.457 355.926 183.975 353.401 179.735 350.909C178.45 352.556 174.627 355.191 164.5 350.459V350.448Z" fill="#080435"/>
<path d="M171.673 244.64L134.634 254.421L130.186 284.579L167.224 274.797L171.673 244.64Z" fill="#FF5150"/>
<path d="M137 281.027L112.203 287.575L112.635 289.21L137.433 282.662L137 281.027Z" fill="#FF5150"/>
<path d="M150.803 264.642C150.627 263.884 151.089 263.127 151.846 262.951C152.604 262.776 153.362 263.237 153.538 263.994C153.714 264.752 153.252 265.509 152.495 265.685C151.737 265.861 150.979 265.399 150.803 264.642Z" fill="white"/>
<path d="M251.353 123.703H403.781C408.197 123.703 411.778 127.282 411.778 131.695V136.021H243.367V131.695C243.367 127.282 246.948 123.703 251.364 123.703H251.353Z" fill="#100259"/>
<path d="M226.781 147.822H183.536V153.191H226.781V147.822Z" fill="#14B3A7"/>
<path d="M226.781 179.506H183.536V184.874H226.781V179.506Z" fill="#14B3A7"/>
<path d="M226.781 213.647H183.536V219.016H226.781V213.647Z" fill="#14B3A7"/>
<path d="M226.792 157.429H190.862V160.118H226.792V157.429Z" fill="#BEE8E1"/>
<path d="M226.792 162.259H190.862V164.948H226.792V162.259Z" fill="#BEE8E1"/>
<path d="M226.792 167.101H190.862V169.79H226.792V167.101Z" fill="#BEE8E1"/>
<path d="M226.792 189.188H190.862V191.878H226.792V189.188Z" fill="#BEE8E1"/>
<path d="M226.792 194.019H190.862V196.708H226.792V194.019Z" fill="#BEE8E1"/>
<path d="M226.792 198.85H190.862V201.539H226.792V198.85Z" fill="#BEE8E1"/>
<path d="M226.792 204.042H190.862V206.732H226.792V204.042Z" fill="#BEE8E1"/>
<path d="M226.792 223.287H190.862V225.977H226.792V223.287Z" fill="#BEE8E1"/>
<path d="M226.792 228.117H190.862V230.807H226.792V228.117Z" fill="#BEE8E1"/>
<path d="M226.792 232.947H190.862V235.637H226.792V232.947Z" fill="#BEE8E1"/>
<path d="M226.792 238.141H190.862V240.83H226.792V238.141Z" fill="#BEE8E1"/>
<path d="M221.882 150.742C221.882 149.787 222.651 149.019 223.606 149.019C224.562 149.019 225.331 149.787 225.331 150.742C225.331 151.697 224.562 152.466 223.606 152.466C222.651 152.466 221.882 151.697 221.882 150.742Z" fill="#BEE8E1"/>
<path d="M221.882 182.185C221.882 181.229 222.651 180.461 223.606 180.461C224.562 180.461 225.331 181.229 225.331 182.185C225.331 183.14 224.562 183.908 223.606 183.908C222.651 183.908 221.882 183.14 221.882 182.185Z" fill="#BEE8E1"/>
<path d="M221.882 216.338C221.882 215.383 222.651 214.614 223.606 214.614C224.562 214.614 225.331 215.383 225.331 216.338C225.331 217.293 224.562 218.061 223.606 218.061C222.651 218.061 221.882 217.293 221.882 216.338Z" fill="#BEE8E1"/>
<path d="M243.367 225.977L232.833 228.425L227.616 237.899L223.64 216.305L243.367 225.977Z" fill="#100259"/>
<path d="M232.248 226.366L230.716 227.526L237.449 236.408L238.981 235.248L232.248 226.366Z" fill="#100259"/>
<path d="M465.974 295.14H322.762V322.585H465.974V295.14Z" fill="#007C6E"/>
<path d="M507.516 239.491H364.304V295.118H507.516V239.491Z" fill="#FF5150"/>
<path d="M507.506 246.353H371.477V288.246H507.506V246.353Z" fill="#FFFFEC"/>
<path d="M465.964 298.543H326.288V319.182H465.964V298.543Z" fill="#FFFFEC"/>
<path d="M377.111 280.506H389.963V304.471L383.537 296.885L377.111 304.471V280.506Z" fill="#00B6A7"/>
<path d="M498.279 322.509H355.066V349.954H498.279V322.509Z" fill="#00B6A7"/>
<path d="M364.82 325.891H360.35V346.574H364.82V325.891Z" fill="#007C6E"/>
<path d="M491.469 325.891H388.503V346.574H491.469V325.891Z" fill="#007C6E"/>
<path d="M374.486 342.664C377.641 342.664 380.198 340.109 380.198 336.956C380.198 333.803 377.641 331.247 374.486 331.247C371.332 331.247 368.774 333.803 368.774 336.956C368.774 340.109 371.332 342.664 374.486 342.664Z" fill="#DCEFEB"/>
<path d="M392.182 165.058L358.56 214.383L392.567 219.18L421.807 172.523L392.182 165.058Z" fill="#FFCA00"/>
<path d="M396.4 168.549C390.314 174.796 388.315 183.908 391.248 192.086C391.248 192.086 407.955 192.339 413.458 173.193C418.928 154.343 396.4 168.549 396.4 168.549Z" fill="#FFDE7D"/>
<path d="M422.441 188.498L385.195 165.183L383.015 168.662L420.26 191.978L422.441 188.498Z" fill="#100259"/>
<path d="M423.407 181.832L389.279 160.468C387.357 159.265 384.822 159.847 383.617 161.769C382.413 163.691 382.995 166.224 384.918 167.428L419.045 188.791C420.968 189.995 423.503 189.412 424.708 187.491C425.912 185.569 425.329 183.035 423.407 181.832Z" fill="#FBBD6C"/>
<path d="M476.299 136.383C467.765 149.996 450.596 168.143 431.802 186.059C429.726 188.035 426.574 188.343 424.146 186.828L384.449 161.973C382.021 160.458 380.934 157.483 381.802 154.76C389.721 130.048 398.564 106.676 407.099 93.0626C426.31 62.4222 463.777 49.5118 479.265 45.3401C483.11 44.3081 487.02 46.7563 487.767 50.6645C490.766 66.4183 495.511 105.742 476.299 136.394V136.383Z" fill="#F4EBFF"/>
<path d="M468.775 75.2885C476.761 80.2836 483.868 86.1241 490.041 92.5683C491.59 75.058 489.426 59.3152 487.778 50.6753C487.031 46.767 483.121 44.3189 479.276 45.3508C470.544 47.7111 454.847 52.827 439.359 62.3342C449.432 65.1007 459.362 69.3932 468.775 75.2885Z" fill="#004782"/>
<path d="M444.236 132.387C456.545 132.387 466.523 122.414 466.523 110.112C466.523 97.8097 456.545 87.8369 444.236 87.8369C431.927 87.8369 421.949 97.8097 421.949 110.112C421.949 122.414 431.927 132.387 444.236 132.387Z" fill="#CBBDE1"/>
<path d="M444.236 125.031C452.48 125.031 459.164 118.352 459.164 110.112C459.164 101.872 452.48 95.1924 444.236 95.1924C435.992 95.1924 429.309 101.872 429.309 110.112C429.309 118.352 435.992 125.031 444.236 125.031Z" fill="#F4EBFF"/>
<path d="M444.237 122.309C450.976 122.309 456.44 116.848 456.44 110.112C456.44 103.376 450.976 97.915 444.237 97.915C437.497 97.915 432.033 103.376 432.033 110.112C432.033 116.848 437.497 122.309 444.237 122.309Z" fill="white"/>
<path d="M409.768 94.4175L394.003 145.794L353.94 133.514L357.421 122.168C364.201 100.075 387.655 87.628 409.771 94.407L409.768 94.4175Z" fill="#004782"/>
<path d="M461.412 200.832L432.871 170.167L472.239 133.565C487.987 150.486 487.036 177.01 470.098 192.757L461.404 200.84L461.412 200.832Z" fill="#004782"/>
<path d="M379.221 147.701C378.715 148.217 378.551 148.975 378.792 149.655L379.221 147.701Z" fill="#FFDE7D"/>
<path d="M422.674 212.012C422.07 215.525 420.005 218.599 417.874 221.454C414.458 226.054 409.658 230.884 403.99 230.05C401.519 229.698 399.047 228.249 396.675 229.018C394.807 229.621 393.632 231.389 392.116 232.63C385.251 238.239 375.014 231.499 366.27 232.937C360.69 233.848 356.33 238.009 351.727 241.28C347.136 244.563 340.996 247.121 335.987 244.508C334.68 243.827 333.493 242.817 332.043 242.576C328.21 241.928 325.87 246.572 324.838 250.316C322.905 257.298 320.96 264.51 321.872 271.701C322.63 277.64 325.288 283.876 322.861 289.365C321.707 291.967 319.499 294.064 317.226 295.7C315.183 297.16 312.656 298.543 311.876 301.112C310.965 304.098 312.898 307.128 313.612 310.169C314.897 315.735 311.953 321.378 308.658 326.055C306.659 328.898 304.078 331.862 300.606 332.126C297.696 332.345 295.059 330.61 292.39 329.436C289.721 328.261 286.14 327.833 284.273 330.062C281.801 332.993 284.262 338.098 281.779 341.018C279.769 343.378 275.716 342.577 273.552 340.359C271.388 338.142 270.51 335.013 269.279 332.169C268.049 329.326 266.083 326.417 263.051 325.736C261.03 325.286 258.932 325.923 257.043 326.757C255.154 327.592 253.319 328.634 251.287 329.052C249.255 329.469 246.915 329.117 245.564 327.548C244.213 325.978 244.543 323.068 246.476 322.333C244.235 320.346 241.368 319.072 238.392 318.765C229.022 317.799 219.664 316.833 210.294 315.867C220.432 315.823 230.582 315.779 240.72 315.933C243.236 315.966 245.784 316.02 248.234 316.635C249.31 316.91 250.452 317.371 250.969 318.348C251.166 318.732 251.254 319.171 251.474 319.555C252.452 321.268 255.11 320.631 256.702 319.457C258.295 318.282 260.042 316.69 261.953 317.217C262.612 317.393 263.183 317.821 263.732 318.227C266.544 320.346 269.345 322.454 272.157 324.572C273.662 325.703 275.332 327.24 275.013 329.085C274.772 330.501 276.946 331.313 278.067 330.413C279.187 329.513 279.308 327.844 279.011 326.439C278.715 325.034 278.1 323.683 278.1 322.256C278.078 318.842 281.692 316.273 285.108 316.24C288.524 316.207 291.676 318.029 294.477 319.984C297.004 321.74 300.76 320.071 302.188 317.349C303.616 314.626 303.32 311.344 302.737 308.325C302.089 304.965 301.156 301.441 302.012 298.027C302.045 297.906 302.078 297.785 302.166 297.709C302.254 297.621 302.386 297.599 302.507 297.577C308.867 296.413 313.392 289.025 311.074 282.866C310.448 281.186 309.405 279.66 308.889 277.948C307.559 273.48 309.943 268.88 311.448 264.477C312.953 260.064 313.052 254.147 308.987 251.874C305.165 242.334 312.843 230.181 323.091 229.512C329.737 229.084 336.58 232.673 342.852 230.445C347.257 228.875 350.42 224.33 350.343 219.664C350.332 219.532 350.321 219.39 350.321 219.258C349.453 219.302 348.597 219.313 347.74 219.203C346.532 219.049 345.312 218.632 344.379 217.842C343.742 217.293 343.258 216.59 342.885 215.833C341.808 213.604 341.753 210.893 342.753 208.62C343.753 206.348 345.785 204.558 348.157 203.845C346.828 201.934 346.455 199.398 347.169 197.192C347.883 194.974 349.684 193.141 351.881 192.383C353.243 191.911 354.748 191.856 356.154 192.186C358.373 189.134 361.042 187.761 364.886 188.651C373.575 190.638 370.313 197.708 370.313 197.708C372.905 199.64 372.191 204.174 366.358 205.151C372.4 204.712 372.4 211.848 371.96 217.875C375.135 214.724 380.726 214.45 384.186 217.282C385.46 211.815 389.524 207.083 394.742 205.008C399.948 202.933 406.165 203.57 410.844 206.655C410.965 203.098 415.754 201.056 418.896 202.747C422.048 204.426 423.29 208.499 422.685 212.012H422.674Z" fill="white"/>
<path d="M358.965 210.387C355.373 212.857 353.22 217.15 353.066 221.475C352.814 221.464 352.561 221.442 352.308 221.409C351.1 221.255 349.881 220.838 348.947 220.048C348.31 219.499 347.827 218.796 347.453 218.039C346.377 215.81 346.322 213.099 347.322 210.826C348.321 208.554 350.353 206.764 352.726 206.051C351.397 204.14 351.023 201.604 351.737 199.398C352.451 197.18 354.253 195.347 356.45 194.589C357.493 194.227 358.624 194.106 359.723 194.227L360.667 194.908C358.02 196.39 356.164 199.189 355.823 202.208C355.494 205.227 356.702 208.367 358.965 210.387Z" fill="white"/>
<path d="M354.33 208.093C350.738 210.563 348.585 214.856 348.432 219.181C348.179 219.17 347.926 219.148 347.674 219.115C346.465 218.961 345.246 218.544 344.312 217.754C343.675 217.205 343.192 216.502 342.819 215.745C341.742 213.516 341.687 210.805 342.687 208.532C343.686 206.26 345.718 204.47 348.091 203.757C346.762 201.846 346.389 199.31 347.102 197.104C347.816 194.886 349.618 193.053 351.815 192.295C352.858 191.933 353.99 191.812 355.088 191.933L356.033 192.614C353.385 194.096 351.529 196.895 351.189 199.914C350.859 202.933 352.067 206.073 354.33 208.093Z" fill="#F4EBFF"/>
</svg>
