<svg width="800" height="600" viewBox="0 0 800 600" xmlns="http://www.w3.org/2000/svg">
  <rect width="800" height="600" fill="#F3F4F6"></rect>

  <!-- Avatares e pessoas -->
  <circle cx="140" cy="480" r="40" fill="#FECACA"></circle>
  <rect x="120" y="520" width="40" height="10" rx="5" fill="#F87171"></rect>
  <circle cx="660" cy="460" r="40" fill="#A5B4FC"></circle>
  <rect x="640" y="500" width="40" height="10" rx="5" fill="#6366F1"></rect>
  <circle cx="250" cy="150" r="35" fill="#FDE68A"></circle>
  <rect x="230" y="185" width="40" height="8" rx="4" fill="#FBBF24"></rect>
  <circle cx="550" cy="160" r="35" fill="#6EE7B7"></circle>
  <rect x="530" y="195" width="40" height="8" rx="4" fill="#10B981"></rect>
  <circle cx="400" cy="360" r="30" fill="#FBCFE8"></circle>
  <rect x="380" y="390" width="40" height="6" rx="3" fill="#EC4899"></rect>

  <!-- Balões de fala -->
  <rect x="190" y="100" width="130" height="60" rx="10" fill="#E0F2FE"></rect>
  <polygon points="220,160 215,170 230,160" fill="#E0F2FE"></polygon>
  <rect x="520" y="110" width="130" height="60" rx="10" fill="#DCFCE7"></rect>
  <polygon points="550,170 545,180 560,170" fill="#DCFCE7"></polygon>
  <rect x="380" y="270" width="140" height="50" rx="10" fill="#F3E8FF"></rect>
  <polygon points="410,320 405,330 420,320" fill="#F3E8FF"></polygon>
  <rect x="100" y="400" width="150" height="50" rx="10" fill="#FEF9C3"></rect>
  <polygon points="130,450 125,460 140,450" fill="#FEF9C3"></polygon>
  <rect x="600" y="400" width="150" height="50" rx="10" fill="#FCE7F3"></rect>
  <polygon points="630,450 625,460 640,450" fill="#FCE7F3"></polygon>

  <!-- Componentes do fórum -->
  <rect x="280" y="470" width="240" height="80" rx="12" fill="#E5E7EB"></rect>
  <circle cx="300" cy="500" r="15" fill="#93C5FD"></circle>
  <rect x="320" y="490" width="180" height="10" rx="5" fill="#CBD5E1"></rect>
  <rect x="320" y="510" width="140" height="8" rx="4" fill="#E2E8F0"></rect>

  <!-- Ícones de conhecimento -->
  <circle cx="60" cy="60" r="20" fill="#FEF3C7"></circle>
  <path d="M60 50 L60 70 M50 60 L70 60" stroke="#F59E0B" stroke-width="3" stroke-linecap="round"></path>
  <rect x="700" y="60" width="30" height="20" fill="#A7F3D0" rx="5"></rect>
  <path d="M705 65 H725 M705 70 H725" stroke="#047857" stroke-width="2"></path>

  <!-- Decoração / contexto -->
  <rect x="100" y="40" width="600" height="40" rx="10" fill="#E5E7EB"></rect>
  <circle cx="120" cy="60" r="5" fill="#F87171"></circle>
  <circle cx="140" cy="60" r="5" fill="#FBBF24"></circle>
  <circle cx="160" cy="60" r="5" fill="#34D399"></circle>
</svg>
